<svg width="190" height="56" viewBox="0 0 190 56" fill="none" xmlns="http://www.w3.org/2000/svg">
<path d="M154.251 50.3828C138.37 59.2247 120.824 40.8742 118.869 35.1945C116.913 29.5148 119.568 23.1066 125.889 24.9885C132.209 26.8704 133.143 37.184 144.362 36.1695C155.581 35.1551 168.48 17.0152 172.66 9.96746C177.877 1.16941 183.98 2.21491 183.916 7.4158C183.85 12.7937 170.132 41.5409 154.251 50.3828Z" fill="#FFC83A"/>
<path fill-rule="evenodd" clip-rule="evenodd" d="M158.863 24.6241C158.722 24.6421 158.581 24.6795 158.441 24.7382C156.935 25.7103 155.477 26.0991 154.165 26.0991C151.297 26.0991 149.159 24.2522 149.159 23.1344C149.207 22.697 149.402 22.5026 149.742 22.5026C149.888 22.5026 150.033 22.5998 150.179 22.7456C151.151 24.0578 152.512 24.5438 154.019 24.5438C157.275 24.5438 160.969 21.8707 161.892 17.8368C163.545 11.9074 158.393 8.65109 152.609 8.65109C150.471 8.65109 148.235 9.0885 146.242 10.0119C138.563 13.5599 137.543 27.3141 145.465 32.3687C145.933 32.6628 146.424 32.9154 146.932 33.1303C150.671 32.3422 154.834 28.9871 158.863 24.6241ZM137.358 31.9156C137.361 29.192 137.377 26.8775 137.391 24.8983V24.8955V24.893C137.455 15.8082 137.469 13.7923 135.899 11.713C134.344 9.52592 131.525 8.65109 128.804 8.65109C127.054 8.65109 125.401 8.9913 124.381 9.72033C122.291 11.0326 119.764 14.8235 120.007 18.8574C120.007 19.2462 119.764 19.4407 119.278 19.4893C118.743 19.4893 118.5 19.2948 118.451 18.906C118.306 15.9899 119.229 13.4627 121.027 11.1784C119.423 9.47732 117.091 8.60249 114.806 8.60249C113.348 8.60249 111.987 8.9913 110.772 9.72033C108.051 11.2756 105.621 15.5525 106.009 19.6837C106.009 20.1211 105.766 20.3155 105.28 20.3641C104.746 20.4127 104.503 20.2183 104.503 19.8295C104.163 16.6704 105.037 13.8029 107.176 11.227V9.96333C105.378 9.1371 103.725 8.69969 102.218 8.69969C100.663 8.69969 99.0594 9.1371 97.4555 9.96333V32.7089C97.6013 33.6323 100.226 34.1183 102.996 34.1183C105.815 34.1183 108.828 33.6323 109.363 32.7089V26.9739C109.363 26.3907 109.8 26.1477 110.238 26.1477C110.627 26.1477 111.064 26.3907 111.064 26.9739V32.7089C112.277 33.4727 114.196 34.0288 116.438 34.1085C115.157 28.2232 117.614 21.7558 124.524 22.5717C127.866 22.9663 129.967 25.1728 132.18 27.4971C133.705 29.0987 135.283 30.7563 137.358 31.9156ZM78.4705 1.40945V24.4466C78.4705 32.3201 80.4146 34.7502 93.6342 34.1183C96.6475 32.1743 96.2101 24.3494 93.6342 23.7176H91.1555V1.40945C89.0657 0.437415 86.9272 0 84.8373 0C82.7474 0 80.609 0.486016 78.4705 1.40945ZM47.4186 20.6071C47.4186 11.9074 52.1816 8.55389 56.9931 8.55389C59.9092 8.55389 62.7281 9.72033 64.6236 11.8102C67.538 15.2103 67.5131 18.0037 67.4984 19.6572C67.4896 20.6508 67.4844 21.2328 68.1229 21.2875C68.5117 21.3361 68.7547 21.1903 68.8033 20.7529C69.1921 16.0871 67.2481 12.0532 63.5544 9.1371V4.71436C63.5058 3.69372 63.5058 2.62449 63.5058 1.40945C65.4012 0.486016 67.3939 0.048601 69.4838 0.048601C71.5736 0.048601 73.6149 0.486016 75.5104 1.40945C75.5104 3.39219 75.5155 5.92892 75.521 8.67676C75.5396 17.9183 75.563 29.5478 75.4132 30.5218C75.0729 32.8061 73.9551 34.1183 71.6708 34.1183C71.2327 34.1183 70.8023 34.126 70.3815 34.1335C66.8351 34.1965 63.9807 34.2473 63.0683 29.5984C63.0197 29.2582 62.6309 29.0152 62.2907 29.161C61.3056 29.5363 62.4032 31.7226 62.8304 32.5736L62.8739 32.6603C61.5617 33.5837 59.9092 34.0697 57.9166 34.0697C53.0564 34.0697 47.4186 30.5704 47.4186 20.6071ZM60.8327 24.3008C61.3187 24.884 61.9505 25.1756 62.6795 25.1756C63.4086 25.1756 63.9432 24.884 64.2834 24.3494C65.2068 23.183 65.061 21.4333 64.2348 20.4127C63.846 19.8781 63.2627 19.5865 62.4365 19.5865C61.8533 19.5865 61.2215 19.8295 60.7841 20.4127C60.0064 21.4333 59.8606 23.183 60.8327 24.3008ZM40.4602 26.5851C39.3424 29.2582 37.3983 31.4939 34.7252 32.7089C32.1568 33.9496 30.4462 33.7768 29.0914 33.6399C27.4211 33.4712 26.2915 33.3571 24.7619 36.0138C23.7413 37.5691 22.5262 40.2908 23.2553 42.1862C23.6705 43.3488 25.2917 43.802 26.5432 44.1517L26.5433 44.1518L26.5435 44.1518C26.7568 44.2114 26.9594 44.2681 27.1434 44.3247C32.441 45.8799 39.0508 44.7135 42.2585 39.8047C45.8876 34.2081 45.7404 25.5826 45.5682 15.4853V15.4851V15.4848V15.4845V15.4842C45.549 14.3581 45.5294 13.2137 45.5148 12.0532C45.5148 11.8672 45.5297 11.6515 45.5451 11.4266V11.4265V11.4264V11.4264V11.4263V11.4262V11.4262C45.5782 10.9462 45.6141 10.4245 45.5148 10.0605C44.9316 8.16507 35.7459 8.31088 34.7738 10.0605L32.198 22.1137C31.9549 23.1344 30.5455 22.697 30.7885 21.8221C30.9551 21.0485 31.0992 20.3944 31.2236 19.8291L31.2237 19.8287C31.5889 18.1703 31.7858 17.2763 31.891 16.3715C32.014 15.3131 32.0115 14.2402 32.0062 11.9121L32.0062 11.9105V11.9104V11.9104V11.9104V11.9103C32.0049 11.3673 32.0035 10.7559 32.0035 10.0605C30.8371 8.11647 21.3112 8.35948 20.5336 10.0605V22.2595C20.5336 33.9725 35.2113 35.625 39.0508 26.0019C39.1966 25.6617 39.5368 25.5645 39.9742 25.7589C40.4602 25.9533 40.606 26.2449 40.4602 26.5851ZM0.869263 9.57452V33.1463C1.11227 33.7295 3.97977 34.1183 6.84726 34.1183C9.56895 34.1183 12.242 33.8267 12.6309 33.1463V20.2183C12.5823 19.7809 12.8739 19.5379 13.5543 19.5379C14.5783 19.5379 16.5012 20.287 17.6461 20.733L17.6461 20.733C17.8054 20.795 17.9496 20.8512 18.0742 20.8987C19.8725 17.0106 19.5809 11.9074 18.0742 8.69969C13.9917 8.69969 11.7074 10.6438 10.6868 14.9207C10.5896 15.2609 10.3466 15.4553 10.0064 15.4553C9.61756 15.4553 9.22874 15.2123 9.27735 14.6777C9.47175 12.7822 10.3952 10.984 11.7074 9.57452C10.9784 8.9913 8.59692 8.69969 6.26404 8.69969C3.54235 8.69969 1.11227 9.0399 0.869263 9.57452ZM151.686 13.8515C152.901 13.8515 153.873 15.1151 152.804 16.0385C152.463 16.3301 152.075 16.476 151.686 16.476C150.519 16.476 149.596 15.2123 150.617 14.2889C150.957 13.9973 151.297 13.8515 151.686 13.8515Z" fill="white"/>
</svg>
